# xmcd
#
# Track frame offsets:
#	150
#	14312
#	26558
#	38506
#	53129
#	65648
#	81515
#	93253
#	105971
#	120901
#	131248
#	146759
#	162841
#	181706
#	196285
#	206952
#	220585
#	229757
#	244204
#
# Disc length: 3464 seconds
#
# Revision: 1
# Processed by: cddbd v1.5.2PL0 Copyright (c) Steve Scherf et al.
# Submitted via: audiograbber 1.83.01
#
DISCID=020d8613
DTITLE=Memphis Slim - Six Classic Albums [CD 2)
DYEAR=2016
DGENRE=Blues
TTITLE0=Messin' around (from- Memphis Slim at The Gate Of Horn - 1959)
TTITLE1=Wish me well (from- Memphis Slim at The Gate Of Horn - 1959)
TTITLE2=My gal keeps me crying (from- Memphis Slim at The Gate Of Horn - 1959)
TTITLE3=Lend me your love (from- Memphis Slim at The Gate Of Horn - 1959)
TTITLE4=Sassy Mae (from- Memphis Slim at The Gate Of Horn - 1959)
TTITLE5=Mother Earth (from- Memphis Slim at The Gate Of Horn - 1959)
TTITLE6=The bells (from- Memphis Slim and the Real Honky Tonk - 1959)
TTITLE7=The Lord have mercy on me (from- Memphis Slim and the Real Honky Tonk -
TTITLE7=1959)
TTITLE8=My baby don't love me no more (from- Memphis Slim and the Real Honky To
TTITLE8=nk - 1959)
TTITLE9=I left that town - Harlem bound (from- Memphis Slim and the Real Honky 
TTITLE9=Tonk - 1959)
TTITLE10=Boogie after midnight (from- Memphis Slim and the Real Honky Tonk - 19
TTITLE10=59)
TTITLE11=The train is gone (from- Memphis Slim and the Real Honky Tonk - 1959)
TTITLE12=Pinetop Boogie (from- Memphis Slim and the Real Honky Tonk - 1959)
TTITLE13=Whiskey drinking blues (from- Memphis Slim and the Real Honky Tonk - 1
TTITLE13=959)
TTITLE14=San Juan Blues (from- Memphis Slim and the Real Honky Tonk - 1959)
TTITLE15=In the evening (from- Memphis Slim and the Real Honky Tonk - 1959)
TTITLE16=How long blues (from- Memphis Slim and the Real Honky Tonk - 1959)
TTITLE17=Sail on little girl (from- Memphis Slim and the Real Honky Tonk - 1959
TTITLE17=)
TTITLE18=John Henry (from- Memphis Slim and the Real Honky Tonk - 1959)
EXTD=
EXTT0=
EXTT1=
EXTT2=
EXTT3=
EXTT4=
EXTT5=
EXTT6=
EXTT7=
EXTT8=
EXTT9=
EXTT10=
EXTT11=
EXTT12=
EXTT13=
EXTT14=
EXTT15=
EXTT16=
EXTT17=
EXTT18=
PLAYORDER=
